<svg width="32" height="32" viewBox="0 0 32 32" fill="none" xmlns="http://www.w3.org/2000/svg">
<path d="M16.7303 27.8205C15.8901 28.9609 14.5817 29.6618 13.167 29.7314C11.7522 29.8018 10.382 29.2316 9.43411 28.1788L0.939314 18.7519C-0.410776 17.2546 -0.290848 14.9465 1.20646 13.5964C2.7052 12.2463 5.01185 12.367 6.36194 13.865L12.372 20.535C12.461 20.6341 12.5903 20.6873 12.7232 20.6808C12.8567 20.6743 12.9788 20.6075 13.0585 20.5013L25.4118 3.7465C26.6075 2.12352 28.8926 1.77809 30.5163 2.9745C32.1386 4.17091 32.4833 6.45601 31.2869 8.07827L16.7303 27.8205Z" fill="#FCB58B"/>
</svg>
