<svg width="32" height="32" viewBox="0 0 32 32" fill="none" xmlns="http://www.w3.org/2000/svg">
    <path
        d="M25.4874 4.66332C23.0754 4.66332 20.9849 5.94975 20.0201 7.8794L12.7839 6.27136C12.7839 2.73367 10.0503 0 6.51257 0C3.13568 0 0.241211 2.89447 0.241211 6.27136C0.241211 9.80904 3.13568 12.5427 6.51257 12.5427C8.92463 12.5427 11.0151 11.2563 11.9799 9.32663L19.2161 10.9347C19.2161 13.1859 20.3417 15.1156 22.1106 16.0804L20.8241 20.2613C18.5729 20.2613 16.6432 21.8693 16.3216 24.1206L9.40704 25.2462C8.60302 23.799 6.99498 22.6734 5.22614 22.6734C2.65327 22.6734 0.562819 24.7638 0.562819 27.3367C0.562819 29.9095 2.65327 32 5.22614 32C7.47739 32 9.40704 30.392 9.88945 28.1407L16.804 27.0151C17.608 28.4623 19.2161 29.5879 20.9849 29.5879C23.5578 29.5879 25.6482 27.4975 25.6482 24.9246C25.6482 23.4774 25.005 22.0302 23.8794 21.2261L25.3266 17.0452C28.2211 17.5276 31.7588 14.794 31.7588 10.9347C31.7588 7.39699 29.0251 4.66332 25.4874 4.66332ZM6.67337 9.32663C4.90453 9.32663 3.45729 7.8794 3.45729 6.11055C3.45729 4.34171 4.90453 2.89447 6.67337 2.89447C8.44222 2.89447 9.88945 4.34171 9.88945 6.11055C9.72865 8.0402 8.28141 9.32663 6.67337 9.32663ZM5.06533 28.9447C4.26131 28.9447 3.45729 28.3015 3.45729 27.3367C3.45729 26.5327 4.10051 25.7286 5.06533 25.7286C5.86935 25.7286 6.67337 26.3719 6.67337 27.3367C6.67337 28.3015 5.86935 28.9447 5.06533 28.9447ZM20.6633 26.6935C19.8593 26.6935 19.0553 26.0503 19.0553 25.0854C19.0553 24.2814 19.6985 23.4774 20.6633 23.4774C21.4673 23.4774 22.2714 24.1206 22.2714 25.0854C22.2714 25.8894 21.6281 26.6935 20.6633 26.6935ZM25.4874 14.1508C23.7186 14.1508 22.2714 12.7035 22.2714 10.9347C22.2714 9.16583 23.7186 7.71859 25.4874 7.71859C27.2563 7.71859 28.7035 9.16583 28.7035 10.9347C28.7035 12.7035 27.2563 14.1508 25.4874 14.1508Z"
        fill="#FCB58B" />
</svg>
