<svg width="512" height="512" viewBox="0 0 512 512" fill="none" xmlns="http://www.w3.org/2000/svg">
<path d="M201 512H392C436.113 512 472 476.113 472 432V161C472 116.887 436.113 81 392 81H201C156.887 81 121 116.887 121 161V432C121 476.113 156.887 512 201 512ZM392 121C414.055 121 432 138.945 432 161V432C432 454.055 414.055 472 392 472H201C178.945 472 161 454.055 161 432V161C161 138.945 178.945 121 201 121H392ZM41 382V80C41 35.8867 76.8867 0 121 0H343C354.047 0 363 8.95312 363 20C363 31.0469 354.047 40 343 40H121C98.9453 40 81 57.9453 81 80V382C81 393.047 72.0469 402 61 402C49.9531 402 41 393.047 41 382Z" fill="black"/>
</svg>
