<svg width="32" height="32" viewBox="0 0 32 32" fill="none" xmlns="http://www.w3.org/2000/svg">
<g clip-path="url(#clip0)">
<path d="M31.9448 0.449455C31.8328 0.177477 31.5666 0 31.2728 0C3.04732 0 0 11.6975 0 16.7273C0 18.5367 0.401455 20.2269 1.19421 21.7498C1.31639 21.9854 1.55782 22.1352 1.82257 22.1411C2.07273 22.1338 2.33605 22.0088 2.46839 21.7775C4.37387 18.4844 9.77019 10.3563 18.6822 6.03785C19.0474 5.8633 19.4837 6.01309 19.6568 6.37241C19.8313 6.7346 19.68 7.17096 19.3193 7.34551C18.6473 7.67135 18.0015 8.02623 17.3688 8.39421C17.1274 8.53528 16.8931 8.68514 16.6561 8.83201C16.2997 9.05312 15.9477 9.27853 15.6044 9.5113C15.2626 9.74114 14.9251 9.97678 14.5935 10.2182C14.4902 10.2938 14.3914 10.3709 14.2895 10.4481C5.41964 17.0575 0 27.6014 0 31.2728C0 31.6742 0.325841 32.0001 0.727296 32.0001C1.12875 32.0001 1.45459 31.6742 1.45459 31.2728C1.45459 30.1004 2.25314 27.7237 3.76439 24.8888C5.95787 26.6822 8.90912 27.6364 12.3637 27.6364C21.7033 27.6364 23.6597 18.7491 24.7099 13.9739C26.1237 7.54766 29.235 3.7935 31.7862 1.24077C31.9957 1.03275 32.0568 0.721432 31.9448 0.449455Z" fill="#FCB58B"/>
</g>
<defs>
<clipPath id="clip0">
<rect width="32" height="32" fill="white"/>
</clipPath>
</defs>
</svg>
