<svg width="32" height="32" viewBox="0 0 32 32" fill="none" xmlns="http://www.w3.org/2000/svg">
    <g clip-path="url(#clip0)">
        <path
            d="M8.86938 10.1694C9.65283 10.1694 10.29 9.53223 10.29 8.74878C10.29 7.96558 9.65283 7.32812 8.86938 7.32812C8.08594 7.32812 7.44873 7.96533 7.44873 8.74878C7.44873 9.53223 8.08594 10.1694 8.86938 10.1694Z"
            fill="#FCB58B" />
        <path
            d="M0.509521 21.9375L5.92334 16.9536C6.78711 16.1584 8.14136 16.1575 9.00635 16.9517L13.1233 20.7312C13.2388 20.8372 13.3682 20.8416 13.4348 20.835C13.5017 20.8284 13.6274 20.7981 13.7197 20.6716L20.9854 10.6812C21.3845 10.1323 22.002 9.79224 22.679 9.74805C23.3569 9.70386 24.0122 9.96069 24.4795 10.4529L31.3674 17.7109H31.9373V8.69336C31.9375 3.91699 28.0518 0.03125 23.2754 0.03125H8.59961C3.82324 0.03125 -0.0625 3.91699 -0.0625 8.69336V21.9375H0.509521ZM8.86938 5.45215C10.6873 5.45215 12.166 6.93115 12.166 8.74902C12.166 10.5667 10.6873 12.0457 8.86938 12.0457C7.05151 12.0457 5.57275 10.5667 5.57275 8.74902C5.57275 6.93115 7.05151 5.45215 8.86938 5.45215Z"
            fill="#FCB58B" />
        <path
            d="M30.9705 19.6223H30.9614V19.6221C30.7261 19.6128 30.4941 19.5159 30.3191 19.3313L23.1187 11.7444C23.0059 11.6255 22.8713 11.6157 22.8013 11.6201C22.7312 11.6245 22.5991 11.6521 22.5027 11.7847L15.2368 21.7751C14.8555 22.2996 14.2666 22.6372 13.6216 22.7017C12.9761 22.7659 12.3323 22.5518 11.8547 22.1133L7.73755 18.3335C7.58521 18.1936 7.34644 18.1936 7.19409 18.3337L1.51074 23.5657C1.50439 23.5715 1.49756 23.5764 1.49121 23.582C1.47974 23.5918 1.46826 23.6016 1.45654 23.6108C1.44434 23.6206 1.43188 23.6299 1.41919 23.6387C1.40771 23.647 1.39624 23.655 1.38428 23.6626C1.37061 23.6714 1.35693 23.6797 1.34277 23.6877C1.3313 23.6946 1.31958 23.7012 1.30737 23.7075C1.29297 23.7151 1.27808 23.7219 1.26318 23.7288C1.25098 23.7344 1.23877 23.74 1.22632 23.7449C1.21094 23.751 1.19556 23.7563 1.18018 23.7617C1.16748 23.7661 1.15479 23.7705 1.14185 23.7744C1.12573 23.7793 1.10938 23.7832 1.09326 23.7869C1.08032 23.79 1.06787 23.7932 1.05493 23.7959C1.03638 23.7993 1.01782 23.8018 0.999268 23.8042C0.988281 23.8057 0.977295 23.8076 0.966064 23.8088C0.936035 23.8118 0.906006 23.8132 0.875732 23.8132C0.875732 23.8132 0.875732 23.8132 0.875488 23.8132H-0.0512695C0.180908 28.384 3.97217 32.031 8.59961 32.031H23.2754C28.0518 32.031 31.9375 28.1453 31.9375 23.3691V19.6221H30.9705V19.6223Z"
            fill="#FCB58B" />
    </g>
    <defs>
        <clipPath id="clip0">
            <rect width="32" height="31.9375" fill="white" />
        </clipPath>
    </defs>
</svg>
