<svg width="32" height="32" viewBox="0 0 32 32" fill="none" xmlns="http://www.w3.org/2000/svg">
<path d="M16 0C7.16331 0 0 7.16356 0 16C0 24.8369 7.16331 32 16 32C24.8367 32 32 24.8369 32 16C32 7.16356 24.8367 0 16 0ZM16 8C17.1046 8 18 8.8955 18 10C18 11.105 17.1046 12 16 12C14.8954 12 14 11.105 14 10C14 8.8955 14.8954 8 16 8ZM19 24H13C12.4478 24 12 23.5527 12 23C12 22.4478 12.4478 22 13 22H14V16H13C12.4478 16 12 15.5527 12 15C12 14.4478 12.4478 14 13 14H17C17.5522 14 18 14.4478 18 15V22H19C19.5522 22 20 22.4478 20 23C20 23.5527 19.5522 24 19 24Z" fill="#FCB58B"/>
</svg>
