<svg width="32" height="32" viewBox="0 0 32 32" fill="none" xmlns="http://www.w3.org/2000/svg">
    <g clip-path="url(#clip0)">
        <path
            d="M31.6532 10.0922C31.6532 8.72978 31.3853 7.4094 30.861 6.16174C30.3519 4.96001 29.6248 3.88075 28.6986 2.95458C27.7724 2.0284 26.6932 1.30124 25.4914 0.792224C24.2476 0.264075 22.9234 0 21.5609 0C20.1985 0 18.8781 0.267902 17.6304 0.792224C16.4287 1.30124 15.3494 2.0284 14.4233 2.95458C13.4971 3.88075 12.7699 4.96001 12.2609 6.16174C11.7328 7.40557 11.4687 8.72978 11.4687 10.0922C11.4687 11.7953 11.8973 13.464 12.7125 14.9489L0.630141 27.0198C0.350758 27.2992 0.262733 27.724 0.434955 28.1259C0.4694 28.2101 0.526808 28.2866 0.591869 28.3516L3.29768 31.0574C3.36274 31.1225 3.43928 31.1761 3.52348 31.2144C3.92533 31.3866 4.35015 31.3024 4.62953 31.0192L6.30201 29.3467L8.7093 31.754C8.77436 31.8191 8.8509 31.8726 8.93506 31.9109C9.33692 32.0831 9.76177 31.999 10.0411 31.7157L12.7087 29.0482C12.7737 28.9831 12.8273 28.9066 12.8656 28.8224C13.0378 28.4206 12.9536 27.9957 12.6704 27.7164L10.3014 25.3473L16.7004 18.9445C18.1815 19.7597 19.854 20.1883 21.5571 20.1883C22.9195 20.1883 24.2399 19.9204 25.4875 19.3961C26.6893 18.8871 27.7686 18.1599 28.6947 17.2337C29.6209 16.3076 30.348 15.2283 30.8571 14.0266C31.3853 12.7751 31.6532 11.4547 31.6532 10.0922ZM25.0973 13.6324C24.152 14.5777 22.8928 15.0982 21.5571 15.0982C20.2215 15.0982 18.9623 14.5777 18.017 13.6324C17.0717 12.6871 16.5474 11.4279 16.5474 10.0922C16.5474 8.75274 17.0679 7.49743 18.0132 6.55211C18.9585 5.6068 20.2177 5.08631 21.5533 5.08631C22.889 5.08631 24.1481 5.6068 25.0935 6.55211C26.0388 7.49743 26.5593 8.75657 26.5593 10.0922C26.5669 11.4279 26.0464 12.6871 25.0973 13.6324Z"
            fill="#FCB58B" />
    </g>
    <defs>
        <clipPath id="clip0">
            <rect width="32" height="32" fill="white" />
        </clipPath>
    </defs>
</svg>
