<svg width="32" height="32" viewBox="0 0 32 32" fill="none" xmlns="http://www.w3.org/2000/svg">
    <path
        d="M23.5 1.875C21.7636 1.875 20.1716 2.42525 18.7683 3.5105C17.423 4.55094 16.5273 5.87612 16 6.83975C15.4727 5.87606 14.577 4.55094 13.2317 3.5105C11.8284 2.42525 10.2364 1.875 8.5 1.875C3.65425 1.875 0 5.83856 0 11.0946C0 16.773 4.55894 20.6581 11.4606 26.5395C12.6326 27.5383 13.961 28.6704 15.3418 29.8779C15.5238 30.0372 15.7575 30.125 16 30.125C16.2425 30.125 16.4763 30.0373 16.6583 29.8779C18.0391 28.6703 19.3675 27.5382 20.5402 26.5389C27.4411 20.6581 32 16.773 32 11.0946C32 5.83856 28.3457 1.875 23.5 1.875Z"
        fill="#FCB58B" />
</svg>
