<svg width="32" height="32" viewBox="0 0 32 32" fill="none" xmlns="http://www.w3.org/2000/svg">
    <g clip-path="url(#clip0)">
        <path
            d="M16 20.5714C19.7806 20.5714 22.8571 17.4949 22.8571 13.7143V6.85714C22.8571 3.07657 19.7806 0 16 0C12.2194 0 9.14285 3.07657 9.14285 6.85714V13.7143C9.14285 17.4949 12.2194 20.5714 16 20.5714Z"
            fill="#FCB58B" />
        <path
            d="M26.2857 9.14286C25.6549 9.14286 25.1429 9.65257 25.1429 10.2857V13.7143C25.1429 18.7566 21.0423 22.8571 16 22.8571C10.9577 22.8571 6.85716 18.7566 6.85716 13.7143V10.2857C6.85716 9.65257 6.34516 9.14286 5.7143 9.14286C5.08344 9.14286 4.57144 9.65257 4.57144 10.2857V13.7143C4.57144 19.6229 9.09716 24.4434 14.8572 25.0263V30.8571C14.8572 31.488 15.3692 32 16 32C16.6309 32 17.1429 31.488 17.1429 30.8571V25.0263C22.9029 24.4434 27.4286 19.6229 27.4286 13.7143V10.2857C27.4286 9.65257 26.9166 9.14286 26.2857 9.14286Z"
            fill="#FCB58B" />
    </g>
    <defs>
        <clipPath id="clip0">
            <rect width="32" height="32" fill="white" />
        </clipPath>
    </defs>
</svg>
