<svg width="32" height="32" viewBox="0 0 32 32" fill="none" xmlns="http://www.w3.org/2000/svg">
<g clip-path="url(#clip0)">
<path d="M10.656 6H21.344L23.6507 4.15467C24.436 3.528 24.7293 2.51067 24.3973 1.56133C24.0653 0.612 23.2027 0 22.2 0H9.8C8.79733 0 7.93467 0.613333 7.60267 1.56133C7.27067 2.50933 7.564 3.528 8.348 4.15333L10.656 6Z" fill="#FCB58B"/>
<path d="M21.5267 8H10.4733C6.832 11.5747 4 17.8467 4 23C4 27.4787 6.37067 32 11.6667 32H20.6667C25.1907 32 28 28.5507 28 23C28 17.8467 25.168 11.5747 21.5267 8ZM15.4933 19H16.5067C18.0653 19 19.3333 20.268 19.3333 21.8267C19.3333 23.228 18.3227 24.3813 17 24.616V25.6653C17 26.2173 16.552 26.6653 16 26.6653C15.448 26.6653 15 26.2173 15 25.6653V24.6667H13.6667C13.1147 24.6667 12.6667 24.2187 12.6667 23.6667C12.6667 23.1147 13.1147 22.6667 13.6667 22.6667H16.5067C16.9627 22.6667 17.3333 22.296 17.3333 21.84C17.3333 21.3707 16.9627 21 16.5067 21H15.4933C13.9347 21 12.6667 19.732 12.6667 18.1733C12.6667 16.772 13.6773 15.6187 15 15.384V14.3333C15 13.7813 15.448 13.3333 16 13.3333C16.552 13.3333 17 13.7813 17 14.3333V15.3333H18.3333C18.8853 15.3333 19.3333 15.7813 19.3333 16.3333C19.3333 16.8853 18.8853 17.3333 18.3333 17.3333H15.4933C15.0373 17.3333 14.6667 17.704 14.6667 18.16C14.6667 18.6293 15.0373 19 15.4933 19Z" fill="#FCB58B"/>
</g>
<defs>
<clipPath id="clip0">
<rect width="32" height="32" fill="white"/>
</clipPath>
</defs>
</svg>
