<svg width="32" height="32" viewBox="0 0 32 32" fill="none" xmlns="http://www.w3.org/2000/svg">
    <path
        d="M16.3334 2.66667H14.8667C14.4267 1.13333 13.0134 0 11.3334 0C9.65337 0 8.24004 1.13333 7.80004 2.66667H6.33337C5.78671 2.66667 5.33337 3.12 5.33337 3.66667V5.66667C5.33337 6.94667 6.38671 8 7.66671 8H15C16.28 8 17.3334 6.94667 17.3334 5.66667V3.66667C17.3334 3.12 16.88 2.66667 16.3334 2.66667Z"
        fill="#FCB58B" />
    <path
        d="M19 4H18.6667V5.66667C18.6667 7.69333 17.0267 9.33333 15 9.33333H7.66667C5.64 9.33333 4 7.69333 4 5.66667V4H3.66667C1.64 4 0 5.64 0 7.66667V24.3333C0 26.36 1.64 28 3.66667 28H13.5067L13.8 26.36C13.9333 25.6133 14.28 24.9467 14.8133 24.4L15.88 23.3333H5C4.45333 23.3333 4 22.88 4 22.3333C4 21.7867 4.45333 21.3333 5 21.3333H17.6667C17.7333 21.3333 17.7867 21.3333 17.8533 21.36H17.8667L22.6667 16.56V7.66667C22.6667 5.64 21.0267 4 19 4ZM17.6667 19H5C4.45333 19 4 18.5467 4 18C4 17.4533 4.45333 17 5 17H17.6667C18.2133 17 18.6667 17.4533 18.6667 18C18.6667 18.5467 18.2133 19 17.6667 19ZM17.6667 14.6667H5C4.45333 14.6667 4 14.2133 4 13.6667C4 13.12 4.45333 12.6667 5 12.6667H17.6667C18.2133 12.6667 18.6667 13.12 18.6667 13.6667C18.6667 14.2133 18.2133 14.6667 17.6667 14.6667Z"
        fill="#FCB58B" />
    <path
        d="M16.7027 32C16.44 32 16.184 31.896 15.996 31.7067C15.7653 31.476 15.6613 31.148 15.7187 30.8253L16.4253 26.8187C16.46 26.6173 16.5587 26.4307 16.7027 26.2853L26.6027 16.3867C27.8187 15.168 29.0133 15.4973 29.6667 16.1507L31.316 17.8C32.2267 18.7093 32.2267 20.1893 31.316 21.1L21.416 31C21.272 31.1454 21.0853 31.2427 20.8827 31.2774L16.876 31.984C16.8187 31.9947 16.76 32 16.7027 32ZM20.7093 30.2933H20.7227H20.7093Z"
        fill="#FCB58B" />
</svg>
