<svg width="32" height="32" viewBox="0 0 32 32" fill="none" xmlns="http://www.w3.org/2000/svg">
    <g clip-path="url(#clip0)">
        <path
            d="M1.29791 31.9601L7.50181 29.926C7.72858 29.8515 7.93504 29.7263 8.10088 29.5571L22.641 14.9324L16.8499 9.13799L2.34709 23.7255C2.15755 23.9184 2.02217 24.1587 1.95448 24.4227L0.289273 31.0226C0.140386 31.6149 0.715762 32.153 1.29791 31.9601Z"
            fill="#FCB58B" />
        <path
            d="M31.1971 3.46884L28.266 0.537808C27.5587 -0.169566 26.1236 -0.17972 25.4298 0.510731L18.2816 7.69954L24.076 13.4939L26.3267 11.2296L27.4233 12.333C27.6873 12.597 27.6839 13.0268 27.4233 13.2908L25.6464 15.0643L24.208 16.4994L18.1868 22.5036C17.6588 23.0316 17.6554 23.8878 18.1834 24.4192C18.4474 24.6832 18.796 24.8152 19.1413 24.8152C19.4865 24.8152 19.8317 24.6832 20.0991 24.4192L29.3356 15.2031C30.6555 13.8865 30.6589 11.7407 29.3423 10.4207L28.2356 9.30717L31.2208 6.30507C31.9146 5.6113 31.9045 4.17625 31.1971 3.46884Z"
            fill="#FCB58B" />
    </g>
    <defs>
        <clipPath id="clip0">
            <rect width="32" height="32" fill="white" />
        </clipPath>
    </defs>
</svg>
