<svg width="32" height="32" viewBox="0 0 32 32" fill="none" xmlns="http://www.w3.org/2000/svg">
<g clip-path="url(#clip0)">
<path d="M13.1471 15.4146C15.2648 15.4146 17.0985 14.655 18.5968 13.1565C20.0951 11.6582 20.8546 9.82496 20.8546 7.70704C20.8546 5.58985 20.0951 3.75635 18.5966 2.25757C17.098 0.759523 15.2645 9.53674e-07 13.1471 9.53674e-07C11.0292 9.53674e-07 9.19592 0.759523 7.69763 2.25781C6.19934 3.75611 5.43958 5.5896 5.43958 7.70704C5.43958 9.82496 6.19934 11.6585 7.69788 13.1567C9.19641 14.6548 11.0299 15.4146 13.1471 15.4146Z" fill="#FCB58B"/>
<path d="M26.6331 24.6064C26.5899 23.9829 26.5025 23.3027 26.3738 22.5845C26.2439 21.8608 26.0767 21.1767 25.8765 20.5515C25.6697 19.9053 25.3885 19.2671 25.0408 18.6555C24.68 18.0207 24.2561 17.468 23.7805 17.0132C23.2832 16.5374 22.6743 16.1548 21.9703 15.8757C21.2686 15.5982 20.491 15.4575 19.6592 15.4575C19.3326 15.4575 19.0166 15.5916 18.4065 15.9888C18.0311 16.2336 17.5919 16.5168 17.1016 16.8301C16.6824 17.0972 16.1146 17.3474 15.4131 17.574C14.7288 17.7954 14.034 17.9077 13.3482 17.9077C12.6624 17.9077 11.9678 17.7954 11.2828 17.574C10.5821 17.3477 10.0142 17.0974 9.59554 16.8303C9.10995 16.52 8.6705 16.2368 8.2894 15.9885C7.68002 15.5913 7.36386 15.4573 7.0372 15.4573C6.20518 15.4573 5.42783 15.5982 4.72642 15.876C4.02281 16.1545 3.41368 16.5371 2.91588 17.0134C2.44054 17.4685 2.01647 18.021 1.65612 18.6555C1.30871 19.2671 1.02746 19.905 0.820431 20.5517C0.620481 21.177 0.453245 21.8608 0.323363 22.5845C0.194701 23.3017 0.107299 23.9822 0.0640867 24.6071C0.0216064 25.2195 0.00012207 25.8549 0.00012207 26.4968C0.00012207 28.1672 0.531126 29.5195 1.57824 30.5168C2.61242 31.5009 3.98082 32.0002 5.64488 32.0002H21.053C22.7171 32.0002 24.085 31.5012 25.1194 30.5168C26.1668 29.5202 26.6978 28.1677 26.6978 26.4965C26.6975 25.8518 26.6758 25.2158 26.6331 24.6064Z" fill="#FCB58B"/>
</g>
<defs>
<clipPath id="clip0">
<rect width="32" height="32" fill="white"/>
</clipPath>
</defs>
</svg>
