<svg width="32" height="32" viewBox="0 0 32 32" fill="none" xmlns="http://www.w3.org/2000/svg">
<path d="M30.3095 1.68421C27.4884 -1.13808 21.8917 -0.296082 16 3.33389C10.1083 -0.294942 4.51169 -1.13694 1.69054 1.68421C-1.13067 4.50542 -0.288673 10.102 3.34136 15.9926C-0.288673 21.8843 -1.13067 27.4809 1.69054 30.3021C2.945 31.4692 4.61841 32.0787 6.32956 31.9918C9.79221 31.7616 13.1307 30.6111 16.0001 28.6593C18.8694 30.6112 22.2079 31.7616 25.6706 31.9918C27.3817 32.0786 29.0551 31.4691 30.3096 30.3021C33.1307 27.481 32.2887 21.8843 28.6588 15.9926C32.2887 10.102 33.1307 4.50542 30.3095 1.68421ZM25.6202 2.26424C26.7415 2.18789 27.847 2.56173 28.6919 3.30305C30.4331 5.04423 29.9858 9.12849 27.2653 13.9025C25.9909 12.1427 24.5777 10.4877 23.0393 8.95346C21.5039 7.41224 19.8474 5.99677 18.0856 4.72053C20.3543 3.28904 22.9437 2.4449 25.6202 2.26424ZM3.30818 3.30185C4.1532 2.561 5.25871 2.18756 6.3799 2.26424C9.0568 2.44718 11.6461 3.2932 13.9145 4.72616C10.3909 7.2834 7.29289 10.3807 4.73478 13.9036C2.01424 9.12842 1.56693 5.04423 3.30818 3.30185ZM3.30818 28.6845C1.567 26.9421 2.01431 22.8568 4.73478 18.0839C6.00914 19.8437 7.42233 21.4987 8.9608 23.0329C10.4943 24.5714 12.1485 25.9846 13.9076 27.259C9.13583 29.9795 5.04936 30.4268 3.30818 28.6845ZM10.5785 21.4119C8.9043 19.7489 7.38734 17.9348 6.04701 15.9926C8.74871 12.1114 12.1189 8.74124 16.0001 6.03954C17.943 7.38194 19.7579 8.90077 21.4216 10.5767C23.0954 12.2388 24.6124 14.0518 25.9531 15.9926C24.6119 17.9361 23.0938 19.7514 21.4182 21.4153C19.7554 23.0889 17.9417 24.6055 16.0001 25.9457C14.0571 24.6045 12.2422 23.0868 10.5785 21.4119ZM28.6919 28.6845C26.9495 30.428 22.8642 29.9795 18.0924 27.259C19.8515 25.9847 21.5058 24.5714 23.0392 23.033C24.5777 21.4988 25.9909 19.8438 27.2652 18.084C29.9858 22.8568 30.4331 26.9421 28.6919 28.6845Z" fill="#FCB58B"/>
<path d="M16 20.5687C18.5273 20.5687 20.5761 18.5199 20.5761 15.9926C20.5761 13.4653 18.5273 11.4164 16 11.4164C13.4726 11.4164 11.4238 13.4653 11.4238 15.9926C11.4238 18.5199 13.4726 20.5687 16 20.5687Z" fill="#FCB58B"/>
</svg>
