<svg width="32" height="32" viewBox="0 0 32 32" fill="none" xmlns="http://www.w3.org/2000/svg">
    <g clip-path="url(#clip0)">
        <path
            d="M31.9166 11.65C31.7071 11.0021 31.1324 10.5418 30.4524 10.4806L21.2164 9.64192L17.5642 1.09361C17.2949 0.467128 16.6816 0.0615997 16.0002 0.0615997C15.3187 0.0615997 14.7055 0.467128 14.4362 1.09507L10.784 9.64192L1.54642 10.4806C0.867694 10.5433 0.294437 11.0021 0.0837383 11.65C-0.12696 12.298 0.0676246 13.0087 0.581066 13.4567L7.56245 19.5794L5.5038 28.6478C5.35316 29.3145 5.61196 30.0038 6.16519 30.4037C6.46256 30.6185 6.81047 30.7279 7.16131 30.7279C7.46381 30.7279 7.76387 30.6464 8.03316 30.4852L16.0002 25.7236L23.9642 30.4852C24.547 30.8358 25.2817 30.8038 25.8337 30.4037C26.3871 30.0025 26.6457 29.3131 26.4951 28.6478L24.4364 19.5794L31.4178 13.4579C31.9312 13.0087 32.1273 12.2992 31.9166 11.65Z"
            fill="#FCB58B" />
    </g>
    <defs>
        <clipPath id="clip0">
            <rect width="32" height="32" fill="white" />
        </clipPath>
    </defs>
</svg>
