<svg width="32" height="32" viewBox="0 0 32 32" fill="none" xmlns="http://www.w3.org/2000/svg">
    <g clip-path="url(#clip0)">
        <path
            d="M1.31782 19.2684V19.2835H6.65354C6.77529 17.9628 7.87395 16.9264 9.22542 16.9264C10.5769 16.9264 11.6756 17.9628 11.7973 19.2835H19.7536C19.8754 17.9628 20.974 16.9264 22.3255 16.9264C23.677 16.9264 24.7756 17.9628 24.8974 19.2835H30.6822V19.2684C31.4886 18.5465 32 17.5015 32 16.3327V10.6954C32 8.52034 30.2367 6.75633 28.0609 6.75633H23.639C23.0933 3.74326 19.8804 1.41846 16 1.41846C12.1196 1.41846 8.90671 3.74326 8.36097 6.75776H3.93912C1.76329 6.75776 0 8.52177 0 10.6969V16.3348C0 17.5023 0.51137 18.5486 1.31782 19.2684ZM16 5.00091C17.7189 5.00091 19.2702 5.75651 19.8768 6.75919H12.1239C12.7291 5.75436 14.2804 5.00091 16 5.00091ZM30.6822 20.7151V26.6432C30.6822 28.8183 28.9189 30.5823 26.7431 30.5823H5.25694C3.08111 30.5823 1.31782 28.8183 1.31782 26.6432V20.7159H6.65354C6.77529 22.0365 7.87395 23.0743 9.22542 23.0743C10.5769 23.0743 11.6756 22.0365 11.7973 20.7159H19.7536C19.8754 22.0365 20.974 23.0743 22.3255 23.0743C23.677 23.0743 24.7756 22.0365 24.8974 20.7159H30.6822V20.7151Z"
            fill="#FCB58B" />
    </g>
    <defs>
        <clipPath id="clip0">
            <rect width="32" height="32" fill="white" />
        </clipPath>
    </defs>
</svg>
