<svg width="32" height="32" viewBox="0 0 32 32" fill="none" xmlns="http://www.w3.org/2000/svg">
<g clip-path="url(#clip0)">
<path d="M31.9111 27.4881C31.9098 27.4839 31.9085 27.4797 31.9071 27.4756L30.636 23.6134V14.1558C30.636 12.605 29.3743 11.3433 27.8235 11.3433H19.6135V15.9451C19.6135 18.5298 17.5107 20.6325 14.9261 20.6325H14.2612V25.1556C14.2612 26.7064 15.5229 27.9681 17.0737 27.9681H26.6151L29.0709 29.6023C29.3937 29.8208 29.7589 29.9296 30.1232 29.9296C30.5138 29.9296 30.9037 29.8045 31.2395 29.5553C31.89 29.0726 32.1536 28.2612 31.9111 27.4881ZM25.5297 24.1576C25.0453 24.3404 24.5044 24.0959 24.3216 23.6114L23.9133 22.5297H21.0595L20.6465 23.6141C20.5041 23.9881 20.148 24.2182 19.7702 24.2182C19.6593 24.2182 19.5465 24.1984 19.4367 24.1566C18.9528 23.9722 18.71 23.4306 18.8943 22.9468L21.4759 16.1682C21.4786 16.1611 21.4814 16.154 21.4843 16.1469C21.653 15.7347 22.0497 15.468 22.4952 15.4676C22.943 15.4653 23.3379 15.733 23.5073 16.145C23.5108 16.1535 23.5141 16.162 23.5174 16.1706L26.0756 22.9494C26.2585 23.4338 26.014 23.9747 25.5297 24.1576Z" fill="#FCB58B"/>
<path d="M21.7736 20.6548H23.2057L22.4929 18.766L21.7736 20.6548Z" fill="#FCB58B"/>
<path d="M14.9261 2.07038H4.17629C2.6255 2.07038 1.36383 3.33204 1.36383 4.88283V14.4032L0.0927272 18.2657C0.0913522 18.2699 0.0900398 18.2741 0.0887273 18.2783C-0.153581 19.0512 0.110164 19.8624 0.760654 20.345C1.09646 20.5941 1.48621 20.7193 1.87676 20.7193C2.24101 20.7193 2.60594 20.6105 2.92856 20.3921L5.38464 18.7577H14.9261C16.4768 18.7577 17.7385 17.496 17.7385 15.9452V4.88289C17.7386 3.33204 16.4769 2.07038 14.9261 2.07038ZM13.464 14.5789C13.281 14.7619 13.041 14.8534 12.8012 14.8534C12.5612 14.8534 12.3213 14.7619 12.1383 14.5788L11.7278 14.1682C11.0405 14.6183 10.2201 14.8811 9.33896 14.8811C6.92756 14.8811 4.96571 12.9193 4.96571 10.5079C4.96571 8.09647 6.92756 6.13462 9.33896 6.13462C11.7504 6.13462 13.7122 8.09647 13.7122 10.5079C13.7122 11.3609 13.4658 12.157 13.0418 12.8306L13.4641 13.2529C13.8301 13.6192 13.8301 14.2127 13.464 14.5789Z" fill="#FCB58B"/>
<path d="M9.33891 8.00969C7.96137 8.00969 6.84064 9.13042 6.84064 10.508C6.84064 11.8855 7.96137 13.0062 9.33891 13.0062C9.69897 13.0062 10.0412 12.929 10.3508 12.7913L9.94003 12.3806C9.57391 12.0144 9.57391 11.4209 9.94003 11.0548C10.3061 10.6886 10.8997 10.6886 11.2658 11.0548L11.6547 11.4436C11.772 11.1545 11.8372 10.8387 11.8372 10.508C11.8372 9.13036 10.7165 8.00969 9.33891 8.00969Z" fill="#FCB58B"/>
</g>
<defs>
<clipPath id="clip0">
<rect width="32" height="32" fill="white"/>
</clipPath>
</defs>
</svg>
